<svg version="1.1" viewBox="0.0 0.0 973.989501312336 153.30708661417322" fill="none" stroke="none" stroke-linecap="square" stroke-miterlimit="10" xmlns:xlink="http://www.w3.org/1999/xlink" xmlns="http://www.w3.org/2000/svg"><clipPath id="p.0"><path d="m0 0l973.9895 0l0 153.30708l-973.9895 0l0 -153.30708z" clip-rule="nonzero"/></clipPath><g clip-path="url(#p.0)"><path fill="#000000" fill-opacity="0.0" d="m0 0l973.9895 0l0 153.30708l-973.9895 0z" fill-rule="evenodd"/><path fill="#000000" fill-opacity="0.0" d="m-7.5091863 0.53543305l986.77167 0.40944886" fill-rule="evenodd"/><path stroke="#000000" stroke-width="1.0" stroke-linejoin="round" stroke-linecap="butt" d="m-7.5091863 0.53543305l986.77167 0.40944886" fill-rule="evenodd"/><path fill="#000000" fill-opacity="0.0" d="m-0.47244096 494.04724l960.9448 0.94488525" fill-rule="evenodd"/><path stroke="#000000" stroke-width="1.0" stroke-linejoin="round" stroke-linecap="butt" d="m-0.47244096 494.04724l960.9448 0.94488525" fill-rule="evenodd"/><path fill="#cfe2f3" d="m587.8898 28.377953l101.25983 0l0 73.543304l-101.25983 0z" fill-rule="evenodd"/><path stroke="#000000" stroke-width="1.0" stroke-linejoin="round" stroke-linecap="butt" d="m587.8898 28.377953l101.25983 0l0 73.543304l-101.25983 0z" fill-rule="evenodd"/><path fill="#cfe2f3" d="m872.7428 30.524935l101.25983 0l0 73.54331l-101.25983 0z" fill-rule="evenodd"/><path stroke="#000000" stroke-width="1.0" stroke-linejoin="round" stroke-linecap="butt" d="m872.7428 30.524935l101.25983 0l0 73.54331l-101.25983 0z" fill-rule="evenodd"/><path fill="#cfe2f3" d="m734.00525 28.377953l101.25983 0l0 73.543304l-101.25983 0z" fill-rule="evenodd"/><path stroke="#000000" stroke-width="1.0" stroke-linejoin="round" stroke-linecap="butt" d="m734.00525 28.377953l101.25983 0l0 73.543304l-101.25983 0z" fill-rule="evenodd"/><path fill="#000000" fill-opacity="0.0" d="m-7.5091863 154.46457l981.51184 -0.22047424" fill-rule="evenodd"/><path stroke="#000000" stroke-width="1.0" stroke-linejoin="round" stroke-linecap="butt" d="m-7.5091863 154.46457l981.51184 -0.22047424" fill-rule="evenodd"/></g></svg>